<?xml version="1.0" encoding="utf-8"?>
<!-- Svg Vector Icons : http://www.onlinewebfonts.com/icon -->
<!DOCTYPE svg PUBLIC "-//W3C//DTD SVG 1.1//EN" "http://www.w3.org/Graphics/SVG/1.1/DTD/svg11.dtd">
<svg version="1.1" xmlns="http://www.w3.org/2000/svg" xmlns:xlink="http://www.w3.org/1999/xlink" x="0px" y="0px" viewBox="0 0 256 256" enable-background="new 0 0 256 256" xml:space="preserve">
<metadata> Svg Vector Icons : http://www.onlinewebfonts.com/icon </metadata>
<g><g><path fill="#000000" d="M65.2,74.5h111.2v10.4H65.2V74.5z"/><path fill="#000000" d="M65.6,52.7h111.2v10.9H65.6V52.7z"/><path fill="#000000" d="M66.1,93.1h111.2v10H66.1V93.1z"/><path fill="#000000" d="M66.1,112.2h56.7v11.3H66.1V112.2z"/><path fill="#000000" d="M65.6,150.7h43.1v9.5H65.6V150.7z"/><path fill="#000000" d="M204.1,124c-9.1-10-21.8-2.3-21.8-2.3L134.6,173l-8.2,32.2l27.7-10.4c0,0,44.2-44.7,47.2-47.7C204.3,144.1,213.1,133.9,204.1,124z M133.2,197l4.8-19.1l12.4,11.8L133.2,197z M198.4,144.4l-17.7-15.1l4.3-5l17.7,15.1L198.4,144.4z"/><path fill="#000000" d="M208.3,246H47.6c-12.2,0-22.1-9.9-22.1-22.1V32.1c0-12.2,9.9-22.1,22.1-22.1h160.7c12.2,0,22.1,9.9,22.1,22.1v191.8C230.5,236.1,220.5,246,208.3,246z M47.6,19.1c-7.2,0-13,5.9-13,13v191.8c0,7.2,5.9,13,13,13h160.7c7.2,0,13-5.9,13-13V32.1c0-7.2-5.9-13-13-13H47.6z"/></g></g>
</svg>